#!OML:ASF F:\VICON\USERDATA\INSTALL\Justin_Nancy\Justin_Nancy.ASF
:FULLY-SPECIFIED
:DEGREES
162
root -14.1798 17.747 17.4577 -3.41811 -51.378 11.9226
lowerback 4.71135 -2.52854 -5.90076
upperback -0.972146 -3.69252 1.07275
thorax -3.20799 -1.71497 4.68229
lowerneck -22.2919 -3.6626 -8.64191
upperneck 17.3047 -3.2681 4.6879
head 9.34252 -1.57619 2.5663
rclavicle 3.79679e-014 -1.59028e-015
rhumerus -64.4886 5.55693 -90.9984
rradius 113.816
rwrist -5.35283
rhand -10.04 23.3931
rfingers 7.12502
rthumb 15.9452 -5.97053
lclavicle 3.79679e-014 -1.59028e-015
lhumerus -37.798 -9.43414 88.7877
lradius 111.649
lwrist 23.8944
lhand -15.0404 6.32274
lfingers 7.12502
lthumb 11.1258 36.0078
rfemur -29.269 -1.32245 21.1074
rtibia 20.309
rfoot 2.28562 -2.70488
rtoes -14.7325
lfemur 8.96009 -7.4202 -32.0738
ltibia 36.3488
lfoot 23.474 -10.2221
ltoes 3.86408
163
root -14.4318 17.6862 17.7069 -4.0796 -51.5291 12.0842
lowerback 5.12599 -2.26259 -5.9574
upperback -0.827952 -3.36809 0.939253
thorax -3.33614 -1.55194 4.57355
lowerneck -21.789 -3.87713 -8.89961
upperneck 16.8147 -3.55845 4.88603
head 9.1144 -1.70639 2.63371
rclavicle 1.09332e-014 -2.22639e-014
rhumerus -64.1132 4.98178 -90.8279
rradius 114.128
rwrist -5.15534
rhand -10.1895 23.5882
rfingers 7.12502
rthumb 15.8011 -5.78688
lclavicle 1.09332e-014 -2.22639e-014
lhumerus -37.6341 -10.3938 89.0379
lradius 111.138
lwrist 23.9648
lhand -14.9298 6.10851
lfingers 7.12502
lthumb 11.2324 35.7878
rfemur -28.6004 -1.7362 21.3847
rtibia 20.8345
rfoot 2.7418 -1.49386
rtoes -5.18318
lfemur 8.68559 -6.9918 -31.8821
ltibia 38.9254
lfoot 22.6843 -9.86228
ltoes 3.66979
164
root -14.6735 17.6133 17.9372 -3.91362 -51.755 11.2134
lowerback 5.84802 -2.08224 -5.53556
upperback -0.7653 -3.13635 1.06927
thorax -3.71989 -1.43147 4.49174
lowerneck -21.5085 -4.02981 -9.1069
upperneck 16.5929 -3.77848 5.1371
head 9.01489 -1.79583 2.72317
rclavicle 2.38542e-015 -3.18055e-015
rhumerus -63.5246 4.76343 -90.8112
rradius 114.212
rwrist -4.9072
rhand -10.1366 23.7402
rfingers 7.12502
rthumb 15.8521 -5.6309
lclavicle 2.38542e-015 -3.18055e-015
lhumerus -37.6521 -10.841 89.383
lradius 110.624
lwrist 23.8699
lhand -15.2682 6.38931
lfingers 7.12502
lthumb 10.9061 36.0861
rfemur -28.2621 -1.98698 22.4618
rtibia 22.1308
rfoot 2.46833 0.626199
rtoes 0.0257271
lfemur 8.15465 -6.43793 -30.8612
ltibia 41.686
lfoot 21.9867 -10.3157
ltoes 2.29634
165
root -14.9169 17.5205 18.1822 -4.0315 -52.2077 10.6241
lowerback 6.43315 -2.00764 -5.20841
upperback -0.64838 -3.03785 1.18611
thorax -3.94894 -1.38302 4.4477
lowerneck -21.3775 -3.97256 -9.17702
upperneck 16.3537 -3.6948 5.19161
head 8.90565 -1.75405 2.76449
rclavicle 1.11021e-013 1.19271e-014
rhumerus -62.8039 5.09772 -90.8247
rradius 114.335
rwrist -4.39613
rhand -10.5293 23.1617
rfingers 7.12502
rthumb 15.4739 -6.23905
lclavicle 1.11021e-013 1.19271e-014
lhumerus -37.7162 -10.5784 89.5201
lradius 110.088
lwrist 23.5742
lhand -15.5534 7.05401
lfingers 7.12502
lthumb 10.631 36.7651
rfemur -27.9345 -2.22525 23.3749
rtibia 24.0933
rfoot 1.47621 1.62215
rtoes 2.79492
lfemur 7.66872 -5.51754 -30.0672
ltibia 44.536
lfoot 20.9504 -10.9851
ltoes -0.459187
166
root -15.1634 17.418 18.4428 -4.56765 -52.9304 10.4717
lowerback 6.79912 -1.82501 -4.97714
upperback -0.469204 -2.79276 1.16156
thorax -4.00749 -1.26848 4.28256
lowerneck -21.2779 -3.83723 -8.97772
upperneck 16.304 -3.49944 4.81591
head 8.84525 -1.69194 2.62956
rclavicle 1.72943e-014 1.19271e-014
rhumerus -62.1194 5.47173 -90.7864
rradius 114.541
rwrist -4.69783
rhand -10.9634 22.7239
rfingers 7.12502
rthumb 15.0558 -6.70863
lclavicle 1.72943e-014 1.19271e-014
lhumerus -37.6818 -10.3332 89.5382
lradius 109.353
lwrist 23.2107
lhand -15.0526 7.23841
lfingers 7.12502
lthumb 11.114 36.9241
rfemur -27.3329 -2.51426 23.9848
rtibia 26.5245
rfoot 0.149143 1.09766
rtoes 8.52591
lfemur 7.24937 -4.48423 -29.6042
ltibia 47.3781
lfoot 20.1678 -10.4958
ltoes -0.472458
167
root -15.4074 17.3248 18.7032 -4.84363 -53.6033 10.007
lowerback 7.19675 -1.55278 -4.44723
upperback -0.263462 -2.40332 1.12627
thorax -4.08109 -1.08884 3.92217
lowerneck -21.0569 -3.89648 -9.02764
upperneck 16.1308 -3.55804 4.70018
head 8.75095 -1.73589 2.58935
rclavicle 1.5207e-014 -1.27222e-014
rhumerus -61.2387 5.52037 -90.6778
rradius 114.602
rwrist -5.24104
rhand -11.1336 22.5731
rfingers 7.12502
rthumb 14.8918 -6.8716
lclavicle 1.5207e-014 -1.27222e-014
lhumerus -37.5737 -10.2595 89.7918
lradius 108.428
lwrist 22.6958
lhand -14.7243 6.52899
lfingers 7.12502
lthumb 11.4307 36.1974
rfemur -26.6128 -1.94249 24.4778
rtibia 29.2527
rfoot -1.65012 0.369376
rtoes 12.8008
lfemur 6.75029 -3.62805 -28.9053
ltibia 50.1575
lfoot 19.7224 -9.50645
ltoes 0.252153
168
root -15.6519 17.2432 18.9504 -5.09031 -54.0662 9.54873
lowerback 7.77972 -1.36528 -4.08412
upperback -0.0877023 -2.14602 1.10565
thorax -4.26457 -0.967595 3.68808
lowerneck -20.8982 -3.97302 -9.10156
upperneck 15.9644 -3.67603 4.81688
head 8.67904 -1.78308 2.62513
rclavicle 3.88624e-014 -4.77083e-015
rhumerus -60.0417 5.68205 -90.7016
rradius 114.342
rwrist -5.59084
rhand -11.0827 22.4571
rfingers 7.12502
rthumb 14.9408 -6.98397
lclavicle 3.88624e-014 -4.77083e-015
lhumerus -37.5346 -10.2017 90.0557
lradius 107.526
lwrist 22.3352
lhand -15.2743 6.54014
lfingers 7.12502
lthumb 10.9002 36.2372
rfemur -26.0576 -0.612678 24.7236
rtibia 31.9117
rfoot -3.59923 -0.296292
rtoes 15.2359
lfemur 6.14099 -2.76616 -28.0521
ltibia 52.8682
lfoot 19.2554 -8.72471
ltoes -0.411196
169
root -15.9034 17.1635 19.1833 -5.45133 -54.3855 9.24654
lowerback 8.47823 -1.15538 -4.03478
upperback 0.0187422 -1.8897 1.11454
thorax -4.57111 -0.835686 3.66337
lowerneck -20.9696 -4.02208 -8.91955
upperneck 16.1746 -3.77011 4.68333
head 8.76386 -1.83209 2.53713
rclavicle -1.11618e-013 -2.38542e-015
rhumerus -58.9037 5.81413 -90.7575
rradius 114.043
rwrist -6.02391
rhand -11.4776 22.4418
rfingers 7.12502
rthumb 14.5603 -7.02716
lclavicle -1.11618e-013 -2.38542e-015
lhumerus -37.6017 -10.2039 90.3823
lradius 106.702
lwrist 22.1884
lhand -16.1284 6.97673
lfingers 7.12502
lthumb 10.0763 36.7155
rfemur -25.5059 0.622176 24.9167
rtibia 34.2912
rfoot -5.51701 -2.1296
rtoes 14.913
lfemur 5.4338 -2.03145 -27.183
ltibia 55.593
lfoot 18.6926 -8.10913
ltoes -1.13876
170
root -16.1585 17.091 19.4201 -5.53737 -54.6274 8.53734
lowerback 9.15075 -0.863419 -3.66568
upperback 0.16561 -1.48681 1.16226
thorax -4.8399 -0.640674 3.47365
lowerneck -21.1236 -4.06979 -8.86055
upperneck 16.5996 -3.83339 4.59861
head 8.93858 -1.87085 2.49058
rclavicle -6.36111e-015 -3.97569e-015
rhumerus -57.7414 5.65799 -90.5602
rradius 113.778
rwrist -6.22545
rhand -11.9035 22.6442
rfingers 7.12502
rthumb 14.15 -6.85396
lclavicle -6.36111e-015 -3.97569e-015
lhumerus -37.7081 -10.2721 90.8761
lradius 105.909
lwrist 22.3578
lhand -16.1697 7.01503
lfingers 7.12502
lthumb 10.0364 36.7557
rfemur -24.4872 1.59975 25.4451
rtibia 36.1725
rfoot -7.38751 -4.61474
rtoes 14.3089
lfemur 4.66708 -1.48168 -26.1089
ltibia 58.4336
lfoot 18.0048 -7.40958
ltoes -2.06769
171
root -16.4051 17.0181 19.6576 -5.07186 -54.9076 7.34874
lowerback 9.67086 -0.746467 -3.00057
upperback 0.287376 -1.27116 1.27377
thorax -5.03406 -0.546871 3.19803
lowerneck -21.4788 -3.89845 -8.42175
upperneck 17.1712 -3.63739 4.2313
head 9.16785 -1.79438 2.32048
rclavicle -1.90833e-014 5.56597e-015
rhumerus -56.2845 5.92362 -90.3018
rradius 113.325
rwrist -6.41045
rhand -11.1995 22.7954
rfingers 7.12502
rthumb 14.8283 -6.65407
lclavicle -1.90833e-014 5.56597e-015
lhumerus -37.8532 -9.96095 91.1523
lradius 105.247
lwrist 22.6617
lhand -16.7171 7.5997
lfingers 7.12502
lthumb 9.50829 37.3652
rfemur -23.3596 2.4157 26.3469
rtibia 37.5846
rfoot -9.07827 -6.32156
rtoes 14.1489
lfemur 3.51433 -0.834815 -24.6915
ltibia 61.4976
lfoot 17.0255 -6.83703
ltoes -3.95062
172
root -16.6427 16.9456 19.8739 -3.05674 -55.0245 4.76599
lowerback 9.91555 -0.865662 -1.72932
upperback 0.264349 -1.27337 1.66857
thorax -5.21326 -0.571672 2.90036
lowerneck -21.7222 -3.68758 -8.06575
upperneck 17.5832 -3.39165 3.97283
head 9.32549 -1.68781 2.20887
rclavicle -2.21645e-014 -3.97569e-015
rhumerus -54.6097 6.49168 -90.2052
rradius 112.611
rwrist -6.77845
rhand -10.6309 23.1744
rfingers 7.12502
rthumb 15.376 -6.23381
lclavicle -2.21645e-014 -3.97569e-015
lhumerus -38.1448 -9.19453 91.3969
lradius 104.588
lwrist 22.6067
lhand -17.5924 8.47779
lfingers 7.12502
lthumb 8.66366 38.28
rfemur -22.5424 3.24336 28.0992
rtibia 38.6454
rfoot -10.4291 -7.9616
rtoes 12.2219
lfemur 1.50943 -0.301909 -22.2067
ltibia 64.8426
lfoot 15.8351 -6.72608
ltoes -6.40142
173
root -16.8717 16.8741 20.0673 0.0676349 -54.6626 1.42948
lowerback 9.76031 -1.04884 -0.206841
upperback 0.147521 -1.31472 2.29928
thorax -5.26549 -0.623129 2.70549
lowerneck -22.0495 -3.71281 -8.18124
upperneck 17.9096 -3.38652 4.05722
head 9.50099 -1.6842 2.25771
rclavicle -3.79679e-014 -2.06736e-014
rhumerus -52.5743 7.01636 -90.2183
rradius 111.687
rwrist -6.92054
rhand -10.9985 23.1025
rfingers 7.12502
rthumb 15.0219 -6.3326
lclavicle -3.79679e-014 -2.06736e-014
lhumerus -38.4655 -8.43025 91.9647
lradius 103.936
lwrist 22.522
lhand -18.6446 9.15263
lfingers 7.12502
lthumb 7.64822 38.9943
rfemur -22.263 3.91128 30.2466
rtibia 39.5381
rfoot -11.6445 -9.75629
rtoes 10.6055
lfemur -1.44769 -0.000136595 -18.9949
ltibia 68.2876
lfoot 14.9462 -7.18364
ltoes -8.32565
